<svg width="224" height="82" viewBox="0 0 224 82" fill="none" xmlns="http://www.w3.org/2000/svg">
<g clip-path="url(#clip0_8_72)">
<rect width="223.34" height="81.07" fill="#1DA09E"/>
<g clip-path="url(#clip1_8_72)">
<rect width="82" height="81.07" fill="white"/>
<rect width="82" height="83" fill="#1DA09E"/>
<rect x="13" y="36" width="56" height="38" rx="3" fill="#FFFCFC"/>
<line x1="32.265" y1="42.576" x2="48.265" y2="52.576" stroke="#0D7876"/>
<line x1="32.265" y1="39.576" x2="48.265" y2="49.576" stroke="#0D7876"/>
<line x1="48.265" y1="53.424" x2="32.265" y2="63.424" stroke="#0D7876"/>
<line x1="48.265" y1="56.424" x2="32.265" y2="66.424" stroke="#0D7876"/>
<rect x="24" y="9" width="33" height="26" rx="2" fill="#FFFCFC"/>
<line x1="29" y1="14.5" x2="48" y2="14.5" stroke="#0D7876"/>
<line x1="34" y1="17.5" x2="48" y2="17.5" stroke="#0D7876"/>
<line x1="40" y1="20.5" x2="48" y2="20.5" stroke="#0D7876"/>
<line x1="44" y1="23.5" x2="48" y2="23.5" stroke="#0D7876"/>
<circle cx="16.5" cy="38.5" r="1.5" fill="#0D7876"/>
<circle cx="16.5" cy="70.5" r="1.5" fill="#0D7876"/>
<circle cx="65.5" cy="70.5" r="1.5" fill="#0D7876"/>
<circle cx="65.5" cy="38.5" r="1.5" fill="#0D7876"/>
</g>
<path d="M99.456 33.152V36.44H92.592V39.992H97.728V43.184H92.592V50H88.488V33.152H99.456ZM103.677 35.216C102.957 35.216 102.365 35.008 101.901 34.592C101.453 34.16 101.229 33.632 101.229 33.008C101.229 32.368 101.453 31.84 101.901 31.424C102.365 30.992 102.957 30.776 103.677 30.776C104.381 30.776 104.957 30.992 105.405 31.424C105.869 31.84 106.101 32.368 106.101 33.008C106.101 33.632 105.869 34.16 105.405 34.592C104.957 35.008 104.381 35.216 103.677 35.216ZM105.717 36.608V50H101.613V36.608H105.717ZM112.795 32.24V50H108.691V32.24H112.795ZM128.393 43.088C128.393 43.472 128.369 43.872 128.321 44.288H119.033C119.097 45.12 119.361 45.76 119.825 46.208C120.305 46.64 120.889 46.856 121.577 46.856C122.601 46.856 123.313 46.424 123.713 45.56H128.081C127.857 46.44 127.449 47.232 126.857 47.936C126.281 48.64 125.553 49.192 124.673 49.592C123.793 49.992 122.809 50.192 121.721 50.192C120.409 50.192 119.241 49.912 118.217 49.352C117.193 48.792 116.393 47.992 115.817 46.952C115.241 45.912 114.953 44.696 114.953 43.304C114.953 41.912 115.233 40.696 115.793 39.656C116.369 38.616 117.169 37.816 118.193 37.256C119.217 36.696 120.393 36.416 121.721 36.416C123.017 36.416 124.169 36.688 125.177 37.232C126.185 37.776 126.969 38.552 127.529 39.56C128.105 40.568 128.393 41.744 128.393 43.088ZM124.193 42.008C124.193 41.304 123.953 40.744 123.473 40.328C122.993 39.912 122.393 39.704 121.673 39.704C120.985 39.704 120.401 39.904 119.921 40.304C119.457 40.704 119.169 41.272 119.057 42.008H124.193ZM129.862 41.552C129.862 39.888 130.222 38.408 130.942 37.112C131.662 35.8 132.662 34.784 133.942 34.064C135.238 33.328 136.702 32.96 138.334 32.96C140.334 32.96 142.046 33.488 143.47 34.544C144.894 35.6 145.846 37.04 146.326 38.864H141.814C141.478 38.16 140.998 37.624 140.374 37.256C139.766 36.888 139.07 36.704 138.286 36.704C137.022 36.704 135.998 37.144 135.214 38.024C134.43 38.904 134.038 40.08 134.038 41.552C134.038 43.024 134.43 44.2 135.214 45.08C135.998 45.96 137.022 46.4 138.286 46.4C139.07 46.4 139.766 46.216 140.374 45.848C140.998 45.48 141.478 44.944 141.814 44.24H146.326C145.846 46.064 144.894 47.504 143.47 48.56C142.046 49.6 140.334 50.12 138.334 50.12C136.702 50.12 135.238 49.76 133.942 49.04C132.662 48.304 131.662 47.288 130.942 45.992C130.222 44.696 129.862 43.216 129.862 41.552ZM148.024 43.28C148.024 41.904 148.28 40.696 148.792 39.656C149.32 38.616 150.032 37.816 150.928 37.256C151.824 36.696 152.824 36.416 153.928 36.416C154.872 36.416 155.696 36.608 156.4 36.992C157.12 37.376 157.672 37.88 158.056 38.504V36.608H162.16V50H158.056V48.104C157.656 48.728 157.096 49.232 156.376 49.616C155.672 50 154.848 50.192 153.904 50.192C152.816 50.192 151.824 49.912 150.928 49.352C150.032 48.776 149.32 47.968 148.792 46.928C148.28 45.872 148.024 44.656 148.024 43.28ZM158.056 43.304C158.056 42.28 157.768 41.472 157.192 40.88C156.632 40.288 155.944 39.992 155.128 39.992C154.312 39.992 153.616 40.288 153.04 40.88C152.48 41.456 152.2 42.256 152.2 43.28C152.2 44.304 152.48 45.12 153.04 45.728C153.616 46.32 154.312 46.616 155.128 46.616C155.944 46.616 156.632 46.32 157.192 45.728C157.768 45.136 158.056 44.328 158.056 43.304ZM169.233 38.84C169.713 38.104 170.313 37.528 171.033 37.112C171.753 36.68 172.553 36.464 173.433 36.464V40.808H172.305C171.281 40.808 170.513 41.032 170.001 41.48C169.489 41.912 169.233 42.68 169.233 43.784V50H165.129V36.608H169.233V38.84ZM179.498 38.84C179.978 38.104 180.578 37.528 181.298 37.112C182.018 36.68 182.818 36.464 183.698 36.464V40.808H182.57C181.546 40.808 180.778 41.032 180.266 41.48C179.754 41.912 179.498 42.68 179.498 43.784V50H175.394V36.608H179.498V38.84ZM187.724 35.216C187.004 35.216 186.412 35.008 185.948 34.592C185.5 34.16 185.276 33.632 185.276 33.008C185.276 32.368 185.5 31.84 185.948 31.424C186.412 30.992 187.004 30.776 187.724 30.776C188.428 30.776 189.004 30.992 189.452 31.424C189.916 31.84 190.148 32.368 190.148 33.008C190.148 33.632 189.916 34.16 189.452 34.592C189.004 35.008 188.428 35.216 187.724 35.216ZM189.764 36.608V50H185.66V36.608H189.764ZM205.362 43.088C205.362 43.472 205.338 43.872 205.29 44.288H196.002C196.066 45.12 196.33 45.76 196.794 46.208C197.274 46.64 197.858 46.856 198.546 46.856C199.57 46.856 200.282 46.424 200.682 45.56H205.05C204.826 46.44 204.418 47.232 203.826 47.936C203.25 48.64 202.522 49.192 201.642 49.592C200.762 49.992 199.778 50.192 198.69 50.192C197.378 50.192 196.21 49.912 195.186 49.352C194.162 48.792 193.362 47.992 192.786 46.952C192.21 45.912 191.922 44.696 191.922 43.304C191.922 41.912 192.202 40.696 192.762 39.656C193.338 38.616 194.138 37.816 195.162 37.256C196.186 36.696 197.362 36.416 198.69 36.416C199.986 36.416 201.138 36.688 202.146 37.232C203.154 37.776 203.938 38.552 204.498 39.56C205.074 40.568 205.362 41.744 205.362 43.088ZM201.162 42.008C201.162 41.304 200.922 40.744 200.442 40.328C199.962 39.912 199.362 39.704 198.642 39.704C197.954 39.704 197.37 39.904 196.89 40.304C196.426 40.704 196.138 41.272 196.026 42.008H201.162ZM211.631 38.84C212.111 38.104 212.711 37.528 213.431 37.112C214.151 36.68 214.951 36.464 215.831 36.464V40.808H214.703C213.679 40.808 212.911 41.032 212.399 41.48C211.887 41.912 211.631 42.68 211.631 43.784V50H207.527V36.608H211.631V38.84Z" fill="white"/>
</g>
<defs>
<clipPath id="clip0_8_72">
<rect width="223.34" height="81.07" fill="white"/>
</clipPath>
<clipPath id="clip1_8_72">
<rect width="82" height="81.07" fill="white"/>
</clipPath>
</defs>
</svg>
